HIERARCHY
ROOT Hips
{
	OFFSET 0.000000 0.000000 0.000000
	CHANNELS 6 Xposition Yposition Zposition Zrotation Yrotation Xrotation 
	JOINT LHipJoint
	{
		OFFSET 0.000000 0.000000 0.000000
		CHANNELS 3 Zrotation Yrotation Xrotation
		JOINT LeftUpLeg
		{
			OFFSET 1.363060 -1.794630 0.839290
			CHANNELS 3 Zrotation Yrotation Xrotation
			JOINT LeftLeg
			{
				OFFSET 2.448110 -6.726130 0.000000
				CHANNELS 3 Zrotation Yrotation Xrotation
				JOINT LeftFoot
				{
					OFFSET 2.562200 -7.039590 0.000000
					CHANNELS 3 Zrotation Yrotation Xrotation
					JOINT LeftToeBase
					{
						OFFSET 0.157640 -0.433110 2.322550
						CHANNELS 3 Zrotation Yrotation Xrotation
						End Site
						{
							OFFSET 0.000000 0.000000 0.000000
						}
					}
				}
			}
		}
	}
	JOINT RHipJoint
	{
		OFFSET 0.000000 0.000000 0.000000
		CHANNELS 3 Zrotation Yrotation Xrotation
		JOINT RightUpLeg
		{
			OFFSET -1.305520 -1.794630 0.839290
			CHANNELS 3 Zrotation Yrotation Xrotation
			JOINT RightLeg
			{
				OFFSET -2.542530 -6.985550 0.000000
				CHANNELS 3 Zrotation Yrotation Xrotation
				JOINT RightFoot
				{
					OFFSET -2.568260 -7.056230 0.000000
					CHANNELS 3 Zrotation Yrotation Xrotation
					JOINT RightToeBase
					{
						OFFSET -0.164730 -0.452590 2.363150
						CHANNELS 3 Zrotation Yrotation Xrotation
						End Site
						{
							OFFSET 0.000000 0.000000 0.000000
						}
					}
				}
			}
		}
	}
}
MOTION
Frames: 11
Frame Time: 0.008333
4.037678 17.336674 0.949200 -177.560444 -56.664224 -159.921698 -11.554876 2.445491 -3.191590 -15.880359 32.527399 -23.384933 -3.803728 -1.329657 -5.135736 2.077088 15.132043 1.585226 2.675400 0.000000 -39.540100 8.812874 -0.398299 5.891134 -2.278765 12.660907 -26.700741 3.158457 1.815652 -5.434029 1.672366 8.101692 14.063533 2.079700 0.000000 -66.982200
4.048839 17.336602 0.957562 -177.656375 -56.888374 -159.849468 -11.558387 2.413751 -3.199471 -15.829049 32.278013 -23.319527 -3.782108 -1.326352 -5.100262 2.087977 15.174481 1.533425 2.673000 0.000000 -39.431000 8.814021 -0.374448 5.810890 -2.289151 12.529553 -26.614823 3.144313 1.809500 -5.466546 1.656750 8.000044 14.075511 2.046201 -0.000000 -66.912800
4.060671 17.336735 0.966668 -177.736592 -57.129747 -159.815545 -11.565008 2.380355 -3.213439 -15.745492 32.033848 -23.217323 -3.757233 -1.320771 -5.073612 2.097610 15.209856 1.486576 2.669500 0.000000 -39.322000 8.814636 -0.348139 5.720741 -2.287147 12.402234 -26.482778 3.129757 1.803220 -5.504267 1.637908 7.871613 14.086043 2.002300 -0.000000 -66.835600
4.072805 17.337119 0.976272 -177.802668 -57.388529 -159.810753 -11.573857 2.345956 -3.232191 -15.637717 31.795737 -23.087897 -3.730289 -1.313736 -5.058915 2.105309 15.234442 1.447341 2.665200 0.000000 -39.213200 8.815175 -0.320012 5.622692 -2.273509 12.276923 -26.315398 3.114967 1.796976 -5.546118 1.616289 7.719110 14.096214 1.949200 -0.000000 -66.753900
4.085440 17.337785 0.986325 -177.857167 -57.663141 -159.835275 -11.583467 2.311033 -3.258017 -15.510955 31.571255 -22.927775 -3.702243 -1.306240 -5.061889 2.109907 15.245022 1.422572 2.661300 -0.000000 -39.106699 8.817491 -0.291120 5.517291 -2.250567 12.151350 -26.117577 3.099077 1.789342 -5.585047 1.592427 7.551570 14.102479 1.890200 0.000000 -66.669000
4.098031 17.338724 0.996567 -177.901781 -57.956459 -159.877227 -11.593897 2.276312 -3.286005 -15.373462 31.353601 -22.752844 -3.673922 -1.298926 -5.080692 2.111354 15.239427 1.411128 2.657400 -0.000000 -39.003200 8.820722 -0.262482 5.407559 -2.218021 12.020913 -25.902286 3.083009 1.781282 -5.621589 1.566865 7.369910 14.106521 1.825700 0.000000 -66.585100
4.110514 17.339939 1.006913 -177.939410 -58.268897 -159.932924 -11.604722 2.242354 -3.314870 -15.230295 31.142669 -22.567030 -3.645896 -1.292378 -5.114920 2.109419 15.217164 1.414388 2.654100 0.000000 -38.904800 8.825188 -0.235162 5.295004 -2.176989 11.881901 -25.676666 3.066743 1.772427 -5.651591 1.540136 7.179545 14.106465 1.757600 -0.000001 -66.504100
4.122726 17.341366 1.017191 -177.974490 -58.601869 -159.994929 -11.615840 2.209891 -3.342084 -15.086143 30.934716 -22.376656 -3.618664 -1.286900 -5.161399 2.104124 15.177949 1.431596 2.651100 0.000000 -38.813300 8.830792 -0.210005 5.181371 -2.129343 11.730938 -25.447086 3.050378 1.763007 -5.673792 1.512601 6.982967 14.100879 1.686800 -0.000000 -66.428700
4.134884 17.342985 1.027281 -178.011972 -58.953201 -160.060225 -11.626603 2.178895 -3.367834 -14.941675 30.727047 -22.176836 -3.591702 -1.283067 -5.222672 2.096249 15.128625 1.464734 2.650301 0.000000 -38.727900 8.838426 -0.187192 5.066321 -2.076353 11.565411 -25.216583 3.033383 1.752037 -5.682097 1.484709 6.787223 14.086169 1.615800 0.000001 -66.358300
4.146532 17.344750 1.037071 -178.051618 -59.326616 -160.120663 -11.637374 2.150093 -3.386442 -14.803151 30.511611 -21.988015 -3.565890 -1.280345 -5.285729 2.086065 15.065718 1.505305 2.649100 0.000000 -38.650700 8.846284 -0.167460 4.953746 -2.019525 11.385988 -24.993223 3.016730 1.741467 -5.683511 1.456273 6.584594 14.065382 1.541700 -0.000000 -66.294300
4.157865 17.346598 1.046498 -178.096998 -59.718861 -160.175044 -11.647443 2.123189 -3.399057 -14.668534 30.284488 -21.800903 -3.540130 -1.279104 -5.354146 2.074835 14.999073 1.554796 2.649800 0.000000 -38.578799 8.855465 -0.150225 4.842305 -1.960886 11.192292 -24.775932 2.999659 1.730344 -5.674240 1.427461 6.380229 14.035695 1.466400 -0.000001 -66.235000
